<svg width="758" height="633" viewBox="0 0 758 633" fill="none" xmlns="http://www.w3.org/2000/svg">
<g opacity="0.06">
<path d="M116.076 0L0.669302 227.278L0 228.598L379.001 633L757.001 229.669L758 228.602V228.591L641.927 0H116.076ZM4.84936 227.873L118.47 4.11207H639.532L753.152 227.873L379.001 627.099L4.84936 227.873ZM149.639 62.6941L71.214 217.144L379.001 545.556L685.785 218.213L686.788 217.144L608.921 63.792L608.363 62.6941H149.639ZM76.065 216.419L152.034 66.8062H605.969L681.937 216.419L379.001 539.656L76.065 216.419Z" fill="#030405"/>
<path d="M76.065 216.419L152.034 66.8062H605.969L681.937 216.419L379.001 539.656L76.065 216.419Z" fill="#030405" fill-opacity="0.57"/>
</g>
</svg>
