<svg width="80" height="63" viewBox="0 0 80 63" fill="none" xmlns="http://www.w3.org/2000/svg">
<path d="M65.8518 3.32446H14.1485L4.01416 22.1453L40.0001 58.3549L75.9861 22.1453L65.8518 3.32446Z" fill="#231F20"/>
<path d="M7.77209 21.5753L40 54.0035L72.228 21.5753L64.0806 6.44432H15.9196L7.77209 21.5753ZM40 62.7063L0.256104 22.7154L12.3772 0.20459H67.6229L79.744 22.7154L40 62.7063Z" fill="white"/>
<path d="M8.02794 21.5393L40 53.7099L71.9719 21.5393L63.9543 6.64901H16.0459L8.02794 21.5393ZM40 54.2971L7.51613 21.6115L15.7931 6.23973H64.207L64.2657 6.34912L72.4839 21.6115L72.378 21.7179L40 54.2971ZM0.51195 22.6794L40 62.4128L79.4881 22.6794L67.4963 0.409275H12.5036L0.51195 22.6794ZM40 63L0 22.7516L0.0706965 22.6201L12.2508 0H67.749L80 22.7516L79.8942 22.8581L40 63Z" fill="#030405"/>
<path d="M37.5211 19.5675V15.1467H32.4336V19.5675H30.1401V9.03662H32.4336V13.1731H37.5211V9.03662H39.8308V19.5675H37.5211Z" fill="white"/>
<path d="M48.2609 12.4311C48.2609 11.5471 47.5664 11.0102 46.6459 11.0102H44.2393V13.8521H46.6459C47.5664 13.8521 48.2609 13.3153 48.2609 12.4311ZM48.0347 19.5675L45.9189 15.8256H44.2393V19.5675H41.9458V9.03662H46.985C49.2299 9.03662 50.6028 10.4734 50.6028 12.4311C50.6028 14.2942 49.4076 15.2889 48.2448 15.5573L50.6674 19.5675H48.0347Z" fill="white"/>
<path d="M37.4303 25.0673C37.5603 25.0673 37.6898 25.023 37.8191 24.9345C37.9483 24.846 38.0645 24.7275 38.1675 24.579C38.2703 24.4305 38.3488 24.2664 38.403 24.0865C38.4569 23.9066 38.484 23.7546 38.484 23.6303C38.484 23.5176 38.4649 23.4167 38.427 23.3274C38.389 23.2382 38.3329 23.1675 38.2583 23.1154C38.1838 23.0633 38.0911 23.0372 37.9801 23.0372C37.799 23.0372 37.6355 23.0958 37.4894 23.2128C37.3434 23.3299 37.2236 23.5051 37.1302 23.7385C37.0367 23.972 36.99 24.2043 36.99 24.4355C36.99 24.6526 37.0264 24.8121 37.0995 24.9142C37.1725 25.0163 37.2828 25.0673 37.4303 25.0673ZM37.9757 22.853C38.3145 22.853 38.5183 23.0095 38.5869 23.322H38.6001L38.7294 22.8894H38.9045L38.403 25.2171H38.2233L38.3218 24.6304H38.3087C38.186 24.8332 38.0495 24.9888 37.8991 25.0972C37.7487 25.2058 37.5757 25.26 37.3799 25.26C36.9694 25.26 36.7644 24.9931 36.7644 24.4591C36.7644 24.1778 36.8192 23.9095 36.9287 23.6539C37.0382 23.3985 37.1846 23.2011 37.3679 23.0619C37.5511 22.9227 37.7537 22.853 37.9757 22.853Z" fill="white"/>
<path d="M39.6142 24.1958L40.9483 22.8895H41.2222L40.1838 23.8939L40.8344 25.2173H40.602L40.0239 24.0202L39.5749 24.4229L39.3996 25.2173H39.1892L39.9121 21.8853H40.1225L39.7587 23.5555L39.6055 24.1958H39.6142Z" fill="white"/>
<path d="M41.98 25.0673C42.11 25.0673 42.2397 25.023 42.3689 24.9345C42.498 24.846 42.6142 24.7275 42.7172 24.579C42.82 24.4305 42.8986 24.2664 42.9527 24.0865C43.0066 23.9066 43.0337 23.7546 43.0337 23.6303C43.0337 23.5176 43.0146 23.4167 42.9767 23.3274C42.9387 23.2382 42.8826 23.1675 42.808 23.1154C42.7335 23.0633 42.6408 23.0372 42.5298 23.0372C42.3487 23.0372 42.1852 23.0958 42.0391 23.2128C41.8931 23.3299 41.7733 23.5051 41.6799 23.7385C41.5865 23.972 41.5397 24.2043 41.5397 24.4355C41.5397 24.6526 41.5763 24.8121 41.6492 24.9142C41.7222 25.0163 41.8324 25.0673 41.98 25.0673ZM42.5254 22.853C42.8644 22.853 43.068 23.0095 43.1366 23.322H43.1498L43.2789 22.8894H43.4542L42.9527 25.2171H42.7729L42.8715 24.6304H42.8584C42.7357 24.8332 42.5992 24.9888 42.4488 25.0972C42.2984 25.2058 42.1252 25.26 41.9296 25.26C41.5191 25.26 41.314 24.9931 41.314 24.4591C41.314 24.1778 41.3689 23.9095 41.4784 23.6539C41.5879 23.3985 41.7343 23.2011 41.9176 23.0619C42.1008 22.9227 42.3034 22.853 42.5254 22.853Z" fill="white"/>
<path d="M23.407 33.9918L24.167 32.9497C24.6308 33.4225 25.3515 33.8181 26.2594 33.8181C27.0293 33.8181 27.4045 33.4707 27.4045 33.1041C27.4045 31.9656 23.6143 32.7472 23.6143 30.3254C23.6143 29.2544 24.5618 28.3667 26.1115 28.3667C27.1577 28.3667 28.0262 28.6754 28.6778 29.264L27.898 30.2674C27.3649 29.785 26.6542 29.5631 25.9831 29.5631C25.381 29.5631 25.0454 29.8235 25.0454 30.2095C25.0454 31.2323 28.8258 30.5472 28.8258 32.9497C28.8258 34.1268 27.967 35.0145 26.1904 35.0145C24.927 35.0145 24.019 34.5997 23.407 33.9918Z" fill="white"/>
<path d="M30.2666 32.3323V28.4631H31.6879V32.284C31.6879 33.1813 32.2208 33.7989 33.2376 33.7989C34.2541 33.7989 34.7772 33.1813 34.7772 32.284V28.4631H36.2084V32.3227C36.2084 33.9243 35.2412 35.0145 33.2376 35.0145C31.2338 35.0145 30.2666 33.9147 30.2666 32.3323Z" fill="white"/>
<path d="M41.8538 30.5375C41.8538 29.9972 41.4392 29.6692 40.8865 29.6692H39.396V31.406H40.8865C41.4392 31.406 41.8538 31.0683 41.8538 30.5375ZM37.9944 34.8987V28.4631H41.074C42.5051 28.4631 43.2849 29.4087 43.2849 30.5375C43.2849 31.6568 42.4953 32.6121 41.074 32.6121H39.396V34.8987H37.9944Z" fill="white"/>
<path d="M44.6467 34.8987V28.4631H49.3055V29.6692H46.0484V31.0296H49.2364V32.2356H46.0484V33.6927H49.3055V34.8987H44.6467Z" fill="white"/>
<path d="M54.7534 30.5375C54.7534 29.9972 54.329 29.6692 53.7664 29.6692H52.2957V31.406H53.7664C54.329 31.406 54.7534 31.078 54.7534 30.5375ZM54.6153 34.8987L53.3221 32.6121H52.2957V34.8987H50.894V28.4631H53.9736C55.3455 28.4631 56.1846 29.3411 56.1846 30.5375C56.1846 31.6761 55.4542 32.284 54.7435 32.448L56.2241 34.8987H54.6153Z" fill="white"/>
<path d="M29.5371 40.0578L28.8121 39.1208L28.6256 39.3384V40.0578H28.1157V37.7174H28.6256V38.763L29.4725 37.7174H30.1007L29.1495 38.8156L30.1654 40.0578H29.5371Z" fill="white"/>
<path d="M31.7479 38.2155L31.3745 39.2226H32.1213L31.7479 38.2155ZM32.4083 40.0576L32.2611 39.6612H31.2347L31.0838 40.0576H30.5024L31.4284 37.7174H32.0674L32.9898 40.0576H32.4083Z" fill="white"/>
<path d="M35.2219 40.0578L34.0806 38.5315V40.0578H33.5708V37.7174H34.0949L35.204 39.1875V37.7174H35.7137V40.0578H35.2219Z" fill="white"/>
<path d="M36.4314 38.8893C36.4314 38.1489 37.0057 37.6788 37.7056 37.6788C38.2045 37.6788 38.5169 37.9245 38.6962 38.2016L38.2728 38.4262C38.1651 38.2612 37.9605 38.1209 37.7056 38.1209C37.2713 38.1209 36.9555 38.4472 36.9555 38.8893C36.9555 39.3314 37.2713 39.6578 37.7056 39.6578C37.9174 39.6578 38.1184 39.5664 38.2153 39.4787V39.1981H37.5836V38.7631H38.725V39.6614C38.4809 39.9279 38.14 40.1035 37.7056 40.1035C37.0057 40.1035 36.4314 39.6262 36.4314 38.8893Z" fill="white"/>
<path d="M39.489 40.0578V37.7174H41.1832V38.1561H39.9987V38.6507H41.1581V39.0893H39.9987V39.6191H41.1832V40.0578H39.489Z" fill="white"/>
<path d="M41.9404 40.0578V37.7174H42.4501V39.6191H43.4623V40.0578H41.9404Z" fill="white"/>
<path d="M45.1671 38.2155L44.7937 39.2226H45.5405L45.1671 38.2155ZM45.8276 40.0576L45.6804 39.6612H44.6537L44.503 40.0576H43.9216L44.8476 37.7174H45.4866L46.409 40.0576H45.8276Z" fill="white"/>
<path d="M48.6411 40.0578L47.4997 38.5315V40.0578H46.99V37.7174H47.5141L48.6231 39.1875V37.7174H49.1328V40.0578H48.6411Z" fill="white"/>
<path d="M49.9653 40.0578V37.7174H51.6595V38.1561H50.475V38.6507H51.6344V39.0893H50.475V39.6191H51.6595V40.0578H49.9653Z" fill="white"/>
<path d="M43.7554 55.8666L43.0341 56.5929L41.7014 55.328L42.4229 54.6017L42.5605 54.7322L41.9896 55.307L42.4188 55.7145L42.9552 55.1744L43.0919 55.3044L42.5556 55.8443L43.0461 56.3098L43.617 55.7352L43.7554 55.8666Z" fill="#939598"/>
<path d="M43.4996 54.3825C43.4217 54.4609 43.3858 54.5482 43.3917 54.6445C43.3976 54.7408 43.4428 54.8369 43.5267 54.9328L44.034 54.4223C43.9386 54.3318 43.8448 54.2831 43.7528 54.2765C43.6608 54.2701 43.5764 54.3053 43.4996 54.3825ZM44.4482 55.2051C44.3048 55.3495 44.1469 55.4207 43.9739 55.4188C43.801 55.4168 43.6348 55.34 43.4749 55.1883C43.3141 55.0354 43.2246 54.8753 43.2068 54.7077C43.1891 54.5403 43.2449 54.3911 43.3748 54.2605C43.4964 54.1382 43.6336 54.0804 43.7868 54.0872C43.94 54.0941 44.084 54.1614 44.219 54.2896L44.3146 54.3805L43.6463 55.0532C43.7666 55.1615 43.8844 55.2172 43.9999 55.2198C44.115 55.2226 44.2223 55.1741 44.3215 55.0743C44.4259 54.9692 44.5066 54.8438 44.5638 54.6984L44.6987 54.8264C44.6697 54.9006 44.6374 54.9659 44.6009 55.022C44.5647 55.0782 44.5138 55.1392 44.4482 55.2051Z" fill="#939598"/>
<path d="M45.3906 53.6877C45.4836 53.7761 45.5217 53.8779 45.5049 53.9935C45.4878 54.1091 45.4185 54.2281 45.297 54.3505C45.1685 54.4799 45.0471 54.561 44.9332 54.5935L44.7928 54.4604C44.8638 54.4365 44.933 54.4044 45.0003 54.3638C45.0677 54.3234 45.1261 54.2782 45.1758 54.2282C45.2524 54.151 45.299 54.0798 45.3149 54.0143C45.331 53.9488 45.3133 53.8914 45.2616 53.8423C45.2228 53.8055 45.1731 53.7904 45.1127 53.7972C45.0523 53.8038 44.9558 53.8372 44.8232 53.897C44.6981 53.9548 44.6039 53.9908 44.54 54.0046C44.476 54.0184 44.4182 54.019 44.367 54.0067C44.3156 53.9944 44.2671 53.9664 44.2215 53.9231C44.1402 53.8459 44.1079 53.7526 44.1251 53.6431C44.1425 53.5337 44.2071 53.4224 44.3193 53.3096C44.4237 53.2044 44.5476 53.1224 44.6911 53.0636L44.7619 53.233C44.6232 53.2918 44.5143 53.3609 44.4353 53.4405C44.3655 53.5107 44.3243 53.5743 44.3115 53.6311C44.2985 53.6882 44.3118 53.7354 44.3514 53.7729C44.378 53.7983 44.4075 53.8132 44.4395 53.8176C44.4717 53.8223 44.511 53.8177 44.5576 53.8042C44.604 53.7906 44.6853 53.7569 44.8013 53.7031C44.9595 53.6283 45.0807 53.5914 45.1648 53.5921C45.249 53.5929 45.3243 53.6247 45.3906 53.6877Z" fill="#939598"/>
<path d="M46.1087 53.2893C46.1346 53.2632 46.1578 53.2359 46.178 53.2079C46.1983 53.1798 46.2132 53.1566 46.2233 53.1384L46.339 53.2482C46.3311 53.2718 46.314 53.3016 46.2882 53.3377C46.2625 53.3736 46.237 53.4042 46.2123 53.4293C46.0246 53.6181 45.8291 53.6159 45.6255 53.4227L45.0312 52.8585L44.8923 52.9984L44.8194 52.9292L44.8954 52.7295L44.7441 52.4647L44.8291 52.3791L45.0605 52.599L45.342 52.3157L45.4596 52.4273L45.1781 52.7106L45.7659 53.2687C45.8262 53.3258 45.8863 53.3556 45.9463 53.3584C46.006 53.361 46.0603 53.338 46.1087 53.2893Z" fill="#939598"/>
<path d="M46.6888 52.9138L46.5419 53.0617L45.5429 52.1133L45.6898 51.9655L46.6888 52.9138ZM45.2599 51.8689C45.2252 51.8361 45.2081 51.8035 45.2085 51.7717C45.2089 51.7398 45.2216 51.7114 45.2462 51.6864C45.2699 51.6627 45.2984 51.65 45.332 51.6482C45.3654 51.6465 45.3993 51.662 45.4334 51.6943C45.4674 51.7265 45.4842 51.7592 45.4838 51.7923C45.4832 51.8254 45.4714 51.8537 45.4477 51.8775C45.423 51.9026 45.3939 51.9155 45.3608 51.9162C45.3276 51.9169 45.2939 51.9012 45.2599 51.8689Z" fill="#939598"/>
<path d="M46.9866 51.3285L47.1219 51.1922C47.2552 51.058 47.3296 50.9399 47.3448 50.8377C47.3601 50.7356 47.3187 50.6382 47.221 50.5452C47.1329 50.4616 47.0392 50.4276 46.94 50.443C46.8408 50.4585 46.732 50.5261 46.6133 50.6454L46.4453 50.8146L46.9866 51.3285ZM47.3695 50.3815C47.5044 50.5095 47.5636 50.6531 47.5468 50.812C47.5298 50.9709 47.4383 51.1341 47.2718 51.3017L47.1196 51.455L47.6437 51.9524L47.4933 52.1039L46.1606 50.8389L46.4961 50.5012C46.8195 50.1758 47.1107 50.1358 47.3695 50.3815Z" fill="#939598"/>
<path d="M48.0423 49.8097C47.9642 49.888 47.9284 49.9753 47.9343 50.0715C47.9401 50.1679 47.9852 50.2639 48.0692 50.3599L48.5765 49.8494C48.4811 49.7589 48.3873 49.7102 48.2953 49.7036C48.2034 49.6971 48.1189 49.7323 48.0423 49.8097ZM48.9908 50.6322C48.8473 50.7765 48.6894 50.8478 48.5164 50.8459C48.3437 50.8439 48.1773 50.767 48.0174 50.6154C47.8566 50.4625 47.7671 50.3024 47.7493 50.1348C47.7315 49.9675 47.7874 49.8182 47.9174 49.6876C48.039 49.5652 48.1762 49.5076 48.3293 49.5143C48.4825 49.5212 48.6265 49.5885 48.7615 49.7167L48.857 49.8076L48.1889 50.4803C48.3091 50.5886 48.4269 50.6443 48.5424 50.647C48.6575 50.6497 48.7649 50.6012 48.8639 50.5014C48.9684 50.3963 49.0491 50.2709 49.1062 50.1255L49.2411 50.2536C49.2124 50.3278 49.1799 50.393 49.1435 50.449C49.1074 50.5053 49.0563 50.5661 48.9908 50.6322Z" fill="#939598"/>
<path d="M49.005 48.5927C49.0481 48.5494 49.0904 48.5139 49.1317 48.4863L49.2518 48.64C49.2026 48.6717 49.1626 48.7032 49.1319 48.7339C49.0536 48.8131 49.0193 48.9117 49.029 49.0302C49.0389 49.1485 49.0927 49.2543 49.1904 49.3471L49.7264 49.8558L49.5795 50.0037L48.5806 49.0553L48.7019 48.9334L48.9037 49.0922L48.9108 49.085C48.8817 48.9869 48.8749 48.8957 48.8904 48.8112C48.9061 48.7268 48.9441 48.6538 49.005 48.5927Z" fill="#939598"/>
<path d="M50.6728 48.3701C50.7658 48.4586 50.8039 48.5604 50.7871 48.676C50.77 48.7916 50.7007 48.9106 50.5793 49.033C50.4507 49.1624 50.3293 49.2435 50.2155 49.276L50.0751 49.1429C50.1462 49.1192 50.2152 49.0869 50.2825 49.0463C50.3501 49.0059 50.4084 48.9607 50.458 48.9109C50.5347 48.8335 50.5812 48.7623 50.5973 48.6968C50.6133 48.6313 50.5955 48.574 50.5438 48.5249C50.505 48.488 50.4554 48.4729 50.395 48.4797C50.3346 48.4863 50.238 48.5197 50.1054 48.5795C49.9804 48.6373 49.8861 48.6733 49.8222 48.6871C49.7583 48.7009 49.7004 48.7015 49.6492 48.6892C49.598 48.6769 49.5493 48.6489 49.5037 48.6056C49.4224 48.5284 49.3901 48.4351 49.4073 48.3256C49.4247 48.2162 49.4893 48.1049 49.6015 47.9922C49.7059 47.8869 49.8298 47.8049 49.9733 47.7461L50.0442 47.9155C49.9056 47.9743 49.7965 48.0435 49.7175 48.123C49.6478 48.1932 49.6066 48.2568 49.5937 48.3136C49.5807 48.3707 49.594 48.4179 49.6337 48.4554C49.6602 48.4808 49.6897 48.4958 49.7217 48.5001C49.7539 48.5048 49.7933 48.5002 49.8398 48.4867C49.8863 48.4731 49.9675 48.4395 50.0835 48.3856C50.2417 48.3108 50.3631 48.2739 50.447 48.2746C50.5313 48.2754 50.6065 48.3072 50.6728 48.3701Z" fill="#939598"/>
<path d="M50.7822 47.8142C50.9098 47.9355 51.032 48.0028 51.1484 48.0165C51.2647 48.0298 51.371 47.9883 51.4672 47.8915C51.5633 47.7946 51.6031 47.6895 51.5864 47.5761C51.5698 47.4628 51.4973 47.3452 51.3691 47.2236C51.2423 47.103 51.1208 47.0365 51.0049 47.0241C50.8892 47.0118 50.7827 47.0546 50.6853 47.1527C50.5891 47.2494 50.5491 47.3534 50.5649 47.4644C50.581 47.5755 50.6534 47.692 50.7822 47.8142ZM51.5212 47.0702C51.6842 47.2249 51.7716 47.3858 51.7833 47.5527C51.7951 47.7196 51.7307 47.874 51.5902 48.0152C51.5035 48.1027 51.4055 48.1602 51.2965 48.1881C51.1872 48.2161 51.0752 48.2112 50.9603 48.1736C50.8452 48.1361 50.7351 48.0674 50.63 47.9675C50.4671 47.8129 50.3798 47.6528 50.3681 47.4869C50.3562 47.3211 50.4206 47.1676 50.5611 47.026C50.6969 46.8895 50.8511 46.825 51.0241 46.8328C51.197 46.8405 51.3626 46.9198 51.5212 47.0702Z" fill="#939598"/>
<path d="M52.9431 46.6177L52.297 46.0043C52.2156 45.9271 52.1367 45.8875 52.0606 45.8855C51.9846 45.8837 51.9082 45.9215 51.8315 45.9988C51.73 46.1009 51.6837 46.2024 51.6932 46.3038C51.7025 46.4049 51.772 46.5172 51.9021 46.6406L52.4262 47.1381L52.2792 47.2861L51.2803 46.3377L51.3998 46.2174L51.5604 46.3231L51.5674 46.3159C51.5484 46.2391 51.5525 46.1603 51.5797 46.0802C51.6069 45.9998 51.6539 45.926 51.7207 45.8589C51.8374 45.7412 51.9542 45.6803 52.0713 45.676C52.1883 45.6717 52.3108 45.7301 52.4384 45.8512L53.09 46.4699L52.9431 46.6177Z" fill="#939598"/>
<path d="M53.5498 45.7983C53.6413 45.7063 53.6874 45.6095 53.688 45.5079C53.6884 45.4061 53.6422 45.3114 53.5493 45.2231L53.4589 45.1373L53.3185 45.2914C53.2058 45.413 53.1405 45.5155 53.1218 45.599C53.1035 45.6824 53.129 45.7573 53.199 45.8237C53.2535 45.8756 53.3113 45.8989 53.372 45.8936C53.4328 45.8883 53.492 45.8567 53.5498 45.7983ZM53.9884 45.5655L53.8172 45.4599L53.81 45.4671C53.8241 45.5753 53.8184 45.664 53.7924 45.7333C53.7664 45.8029 53.7173 45.8739 53.6455 45.9463C53.5493 46.043 53.4484 46.0948 53.3428 46.1012C53.2373 46.1079 53.1373 46.0662 53.0431 45.9768C52.8413 45.7853 52.8924 45.5273 53.1959 45.2028L53.3551 45.0318L53.2931 44.973C53.2147 44.8985 53.1405 44.86 53.0705 44.8575C53.0002 44.8551 52.9292 44.89 52.8571 44.9624C52.7764 45.0438 52.7103 45.1602 52.6593 45.3115L52.4985 45.247C52.5194 45.1734 52.5507 45.1007 52.5928 45.0291C52.6344 44.9573 52.6838 44.8927 52.7412 44.8351C52.8568 44.7186 52.9689 44.6574 53.0775 44.6515C53.1862 44.6455 53.2989 44.6978 53.4156 44.8087L54.0973 45.4559L53.9884 45.5655Z" fill="#939598"/>
<path d="M52.9816 43.805L53.1287 43.657L54.5468 45.0033L54.3998 45.1513L52.9816 43.805Z" fill="#939598"/>
<path d="M55.0055 44.5416L54.8585 44.6895L53.8596 43.7413L54.0066 43.5934L55.0055 44.5416ZM53.5765 43.4968C53.5418 43.464 53.5247 43.4314 53.5252 43.3996C53.5256 43.3676 53.5383 43.3393 53.563 43.3143C53.5865 43.2906 53.6152 43.2779 53.6486 43.2761C53.6821 43.2745 53.7159 43.2899 53.7501 43.3222C53.7841 43.3545 53.8009 43.3872 53.8005 43.4203C53.8 43.4532 53.788 43.4817 53.7645 43.5054C53.7396 43.5305 53.7106 43.5433 53.6774 43.5441C53.6443 43.5448 53.6107 43.5291 53.5765 43.4968Z" fill="#939598"/>
<path d="M55.6478 44.7723C55.5919 44.8287 55.5387 44.8672 55.4887 44.888L55.3655 44.771C55.4186 44.7416 55.4646 44.7069 55.5041 44.6671C55.5503 44.6208 55.5711 44.5746 55.5669 44.5284C55.5625 44.4822 55.5339 44.434 55.4811 44.384L54.3181 43.2799L54.465 43.1318L55.6171 44.2256C55.814 44.4125 55.8243 44.5946 55.6478 44.7723ZM54.035 43.0353C54.0003 43.0023 53.9832 42.97 53.9837 42.938C53.9839 42.9062 53.9966 42.8778 54.0215 42.8528C54.045 42.8291 54.0737 42.8164 54.107 42.8147C54.1404 42.8129 54.1746 42.8284 54.2086 42.8607C54.2426 42.8929 54.2592 42.9256 54.2588 42.9589C54.2584 42.9918 54.2464 43.0203 54.2228 43.044C54.1981 43.0688 54.1691 43.0818 54.1359 43.0826C54.1027 43.0834 54.069 43.0676 54.035 43.0353Z" fill="#939598"/>
<path d="M54.9148 42.6792L55.563 43.2943C55.6444 43.3717 55.7231 43.4113 55.7993 43.4129C55.8754 43.4149 55.9517 43.3774 56.0284 43.3C56.1298 43.1979 56.1755 43.096 56.1652 42.9946C56.1551 42.893 56.0852 42.7809 55.9558 42.6581L55.4307 42.1596L55.5778 42.0117L56.5767 42.9601L56.4555 43.0822L56.3003 42.9764L56.2924 42.9844C56.3114 43.0615 56.3073 43.1393 56.2801 43.2178C56.2527 43.2964 56.2049 43.37 56.1364 43.439C56.0183 43.5578 55.9014 43.6193 55.7849 43.6237C55.6685 43.628 55.5467 43.5698 55.4197 43.4492L54.7661 42.8289L54.9148 42.6792Z" fill="#939598"/>
<path d="M57.5518 41.9783L56.9057 41.3648C56.8243 41.2874 56.7454 41.248 56.6693 41.246C56.5933 41.2443 56.5169 41.2819 56.4401 41.3593C56.338 41.4621 56.2921 41.564 56.3023 41.6654C56.3126 41.7669 56.3827 41.8793 56.5127 42.0028L57.0349 42.4986L56.888 42.6466L55.4697 41.3003L55.6166 41.1524L56.0459 41.5597C56.0977 41.6088 56.138 41.6519 56.1672 41.6888L56.1763 41.68C56.1571 41.6054 56.1605 41.5279 56.1863 41.448C56.212 41.368 56.2591 41.2935 56.3275 41.2245C56.4462 41.1052 56.5642 41.0433 56.6816 41.0386C56.7989 41.034 56.9206 41.0916 57.0471 41.2117L57.6987 41.8304L57.5518 41.9783Z" fill="#939598"/>
<path d="M58.2073 41.1097C58.2334 41.0836 58.2566 41.0565 58.2766 41.0283C58.2971 41.0003 58.312 40.977 58.3219 40.9588L58.4378 41.0687C58.4297 41.0923 58.4128 41.1221 58.3868 41.1581C58.3611 41.1941 58.3357 41.2248 58.3109 41.2497C58.1232 41.4386 57.9279 41.4364 57.7243 41.2432L57.1299 40.6789L56.9909 40.8189L56.918 40.7498L56.9942 40.5501L56.8428 40.2852L56.9279 40.1997L57.1593 40.4194L57.4407 40.1361L57.5582 40.2477L57.2768 40.531L57.8647 41.0893C57.925 41.1464 57.9849 41.1762 58.045 41.1788C58.1047 41.1816 58.1589 41.1585 58.2073 41.1097Z" fill="#939598"/>
<path d="M58.7875 40.7343L58.6405 40.8821L57.6416 39.9339L57.7886 39.786L58.7875 40.7343ZM57.3585 39.6895C57.3238 39.6565 57.3067 39.6241 57.3071 39.5922C57.3076 39.5602 57.3203 39.5318 57.345 39.507C57.3685 39.4833 57.3972 39.4704 57.4306 39.4688C57.4641 39.467 57.4979 39.4826 57.5321 39.5147C57.5661 39.5471 57.5829 39.5798 57.5824 39.6129C57.582 39.6459 57.57 39.6743 57.5465 39.698C57.5216 39.723 57.4926 39.736 57.4594 39.7368C57.4262 39.7373 57.3925 39.7216 57.3585 39.6895Z" fill="#939598"/>
<path d="M59.3573 39.9488C59.4576 39.848 59.5022 39.748 59.491 39.6491C59.4802 39.5504 59.4119 39.4415 59.2867 39.3227L59.2547 39.2923C59.1133 39.1581 58.9894 39.0852 58.8834 39.0738C58.7772 39.0624 58.6737 39.1072 58.5734 39.2082C58.4873 39.295 58.4557 39.3942 58.479 39.5056C58.5021 39.6171 58.5769 39.7327 58.7026 39.852C58.8303 39.9731 58.9492 40.0417 59.0597 40.0577C59.1701 40.0735 59.2693 40.0374 59.3573 39.9488ZM59.6255 39.6288L59.6176 39.6368C59.6512 39.8015 59.6004 39.9517 59.4654 40.0879C59.3384 40.2156 59.1953 40.2726 59.0352 40.2586C58.8756 40.2448 58.7134 40.1597 58.5485 40.0034C58.384 39.8473 58.2914 39.6902 58.2711 39.5322C58.2507 39.3746 58.3036 39.2321 58.43 39.1049C58.5615 38.9725 58.7117 38.9174 58.8803 38.9403L58.8917 38.9287L58.8136 38.8665L58.7398 38.8035L58.3332 38.4177L58.4803 38.2698L59.8986 39.6161L59.7789 39.7364L59.6255 39.6288Z" fill="#939598"/>
<path d="M59.6896 38.0844C59.6117 38.1628 59.5757 38.2503 59.5816 38.3464C59.5876 38.4428 59.6327 38.5388 59.7167 38.6347L60.224 38.1242C60.1286 38.0338 60.0347 37.9851 59.9427 37.9785C59.8507 37.972 59.7663 38.0072 59.6896 38.0844ZM60.6381 38.9071C60.4948 39.0514 60.3369 39.1226 60.1639 39.1208C59.9911 39.1188 59.8248 39.0419 59.6649 38.8903C59.504 38.7375 59.4146 38.5772 59.3968 38.4097C59.379 38.2423 59.4349 38.0931 59.5647 37.9625C59.6863 37.8401 59.8235 37.7824 59.9767 37.7892C60.13 37.7961 60.2739 37.8635 60.409 37.9916L60.5045 38.0825L59.8363 38.7551C59.9566 38.8634 60.0744 38.9191 60.1898 38.9219C60.305 38.9247 60.4123 38.8761 60.5114 38.7764C60.6158 38.6711 60.6965 38.5459 60.7537 38.4003L60.8886 38.5285C60.8597 38.6027 60.8274 38.6678 60.791 38.724C60.7547 38.7801 60.7037 38.8411 60.6381 38.9071Z" fill="#939598"/>
<path d="M61.72 37.7822L60.3875 36.5173L60.5379 36.3658L61.7301 37.4977L62.3011 36.923L62.4413 37.0561L61.72 37.7822Z" fill="#939598"/>
<path d="M62.7858 36.7095L62.6389 36.8574L61.64 35.909L61.7869 35.7611L62.7858 36.7095ZM61.3569 35.6646C61.3222 35.6317 61.3051 35.5993 61.3054 35.5674C61.3058 35.5354 61.3185 35.507 61.3432 35.4822C61.3668 35.4583 61.3955 35.4456 61.4289 35.4438C61.4623 35.4422 61.4963 35.4576 61.5305 35.4899C61.5645 35.5222 61.5812 35.5549 61.5807 35.588C61.5803 35.6211 61.5683 35.6494 61.5447 35.6732C61.5199 35.6982 61.4908 35.7112 61.4578 35.712C61.4247 35.7126 61.3909 35.6968 61.3569 35.6646Z" fill="#939598"/>
<path d="M63.7611 35.7276L63.115 35.1142C63.0335 35.0368 62.9547 34.9973 62.8786 34.9954C62.8025 34.9936 62.7262 35.0313 62.6494 35.1085C62.548 35.2107 62.5017 35.3123 62.5111 35.4135C62.5205 35.5148 62.59 35.6271 62.7201 35.7504L63.2442 36.2478L63.0973 36.3958L62.0984 35.4476L62.2178 35.3273L62.3784 35.433L62.3855 35.4258C62.3664 35.3488 62.3705 35.2702 62.3977 35.1899C62.4249 35.1095 62.4719 35.0357 62.5387 34.9687C62.6555 34.8511 62.7723 34.7902 62.8893 34.7859C63.0063 34.7815 63.1288 34.8398 63.2563 34.9611L63.908 35.5797L63.7611 35.7276Z" fill="#939598"/>
<path d="M63.8439 34.6443C63.8322 34.5838 63.8223 34.4985 63.8138 34.389L63.7854 33.7493L63.9599 33.5737L63.9926 34.3734L64.9863 34.4944L64.8084 34.6736L63.9937 34.5701L63.9816 34.7749L64.3551 35.1297L64.2101 35.2758L62.7917 33.9295L62.9368 33.7834L63.6888 34.4973C63.7224 34.5289 63.7716 34.5803 63.8368 34.6515L63.8439 34.6443Z" fill="#939598"/>
<path d="M64.641 33.1001C64.5631 33.1784 64.5271 33.2659 64.533 33.362C64.539 33.4584 64.5841 33.5545 64.6681 33.6503L65.1754 33.1398C65.08 33.0494 64.9862 33.0008 64.8941 32.9941C64.8021 32.9876 64.7178 33.0228 64.641 33.1001ZM65.5895 33.9228C65.4462 34.0671 65.2883 34.1382 65.1153 34.1364C64.9424 34.1344 64.7762 34.0575 64.6163 33.9059C64.4554 33.7531 64.366 33.5928 64.3482 33.4253C64.3304 33.2579 64.3863 33.1088 64.5161 32.978C64.6377 32.8558 64.7749 32.798 64.9282 32.8049C65.0814 32.8118 65.2253 32.8791 65.3604 33.0072L65.4559 33.098L64.7876 33.7708C64.908 33.879 65.0258 33.9348 65.1412 33.9375C65.2564 33.9403 65.3638 33.8917 65.4628 33.792C65.5673 33.6867 65.648 33.5615 65.7051 33.416L65.84 33.5441C65.8111 33.6182 65.7788 33.6834 65.7424 33.7396C65.7061 33.7957 65.6552 33.8567 65.5895 33.9228Z" fill="#939598"/>
<path d="M66.4364 32.8224C66.5367 32.7215 66.5813 32.6215 66.5701 32.5226C66.5593 32.4238 66.491 32.315 66.3658 32.1962L66.3338 32.1659C66.1924 32.0317 66.0685 31.9587 65.9625 31.9472C65.8563 31.9359 65.7528 31.9806 65.6525 32.0817C65.5664 32.1685 65.5348 32.2677 65.5581 32.3791C65.5812 32.4906 65.656 32.6061 65.7817 32.7255C65.9094 32.8466 66.0283 32.9152 66.1388 32.9312C66.2492 32.9471 66.3484 32.9109 66.4364 32.8224ZM66.7046 32.5023L66.6967 32.5103C66.7303 32.675 66.6795 32.8253 66.5444 32.9614C66.4174 33.0891 66.2744 33.1461 66.1143 33.1322C65.9547 33.1184 65.7925 33.0333 65.6277 32.877C65.4631 32.7208 65.3705 32.5636 65.3502 32.4058C65.3298 32.2481 65.3827 32.1056 65.5091 31.9784C65.6406 31.846 65.7908 31.791 65.9594 31.8137L65.9708 31.8021L65.8927 31.7401L65.8189 31.677L65.4123 31.2912L65.5594 31.1433L66.9777 32.4896L66.8581 32.6099L66.7046 32.5023Z" fill="#939598"/>
<path d="M66.1295 30.7373L67.4619 32.0022L67.3114 32.1537L65.979 30.8888L66.1295 30.7373Z" fill="#939598"/>
<path d="M68.4585 30.9989L67.8124 30.3854C67.7309 30.308 67.6521 30.2686 67.576 30.2667C67.4998 30.2649 67.4236 30.3025 67.3468 30.3799C67.2452 30.482 67.1991 30.5835 67.2084 30.6848C67.2179 30.786 67.2873 30.8983 67.4174 31.0218L67.9415 31.5192L67.7946 31.6672L66.7957 30.7188L66.915 30.5985L67.0758 30.7042L67.0828 30.697C67.0638 30.6201 67.0679 30.5414 67.0951 30.4612C67.1223 30.3809 67.1692 30.3071 67.2359 30.2399C67.3528 30.1224 67.4696 30.0614 67.5866 30.0571C67.7037 30.0527 67.8262 30.1112 67.9538 30.2323L68.6054 30.851L68.4585 30.9989Z" fill="#939598"/>
<path d="M69.2713 28.8152L69.7111 28.3724L70.3592 28.9874C70.3132 29.0777 70.2607 29.164 70.2013 29.2462C70.1421 29.3284 70.0657 29.4164 69.9726 29.5104C69.7766 29.7075 69.5641 29.8041 69.3349 29.8001C69.1059 29.7961 68.8832 29.6915 68.6667 29.486C68.5282 29.3545 68.4336 29.212 68.3835 29.0589C68.3334 28.9055 68.3315 28.7518 68.378 28.5972C68.4245 28.443 68.5158 28.2972 68.6521 28.1599C68.7902 28.0209 68.945 27.9162 69.1165 27.8458L69.1948 28.0344C69.027 28.1036 68.8889 28.1925 68.7809 28.3012C68.6233 28.4598 68.5488 28.6296 68.5568 28.8103C68.565 28.9913 68.6548 29.1629 68.8261 29.3255C69.006 29.4963 69.185 29.5829 69.3631 29.5854C69.5415 29.5878 69.7131 29.506 69.8783 29.3396C69.9679 29.2493 70.045 29.1509 70.1093 29.0447L69.6991 28.6553L69.4097 28.9466L69.2713 28.8152Z" fill="#939598"/>
<path d="M70.1234 27.3335C70.1665 27.2902 70.2088 27.2548 70.2502 27.2272L70.3702 27.3808C70.321 27.4127 70.2811 27.444 70.2504 27.4749C70.172 27.554 70.1377 27.6526 70.1474 27.7711C70.1573 27.8894 70.2111 27.9951 70.3089 28.0881L70.8448 28.5968L70.6979 28.7447L69.699 27.7963L69.8203 27.6742L70.0221 27.833L70.0292 27.8258C70.0002 27.7279 69.9933 27.6367 70.0089 27.552C70.0245 27.4676 70.0625 27.3948 70.1234 27.3335Z" fill="#939598"/>
<path d="M70.577 26.9124L71.2251 27.5275C71.3065 27.6048 71.3852 27.6444 71.4614 27.6462C71.5375 27.648 71.6138 27.6104 71.6905 27.5331C71.7919 27.431 71.8376 27.3291 71.8273 27.2277C71.8172 27.1262 71.7473 27.0142 71.6179 26.8913L71.0929 26.3929L71.2399 26.245L72.2388 27.1932L72.1176 27.3153L71.9624 27.2095L71.9545 27.2175C71.9735 27.2946 71.9694 27.3724 71.9422 27.4509C71.9148 27.5295 71.867 27.6032 71.7986 27.6722C71.6804 27.7909 71.5635 27.8524 71.447 27.8569C71.3306 27.8611 71.2089 27.8029 71.0819 27.6825L70.4282 27.062L70.577 26.9124Z" fill="#939598"/>
<path d="M72.092 25.603C71.9929 25.7029 71.9493 25.8018 71.9614 25.9C71.9739 25.9982 72.041 26.1063 72.1632 26.2247L72.197 26.2567C72.3374 26.3899 72.4605 26.4624 72.5662 26.474C72.6722 26.4857 72.7754 26.4411 72.8757 26.34C72.9594 26.2557 72.99 26.1564 72.9678 26.0423C72.9455 25.9281 72.8729 25.8128 72.7501 25.6962C72.6255 25.578 72.5063 25.5111 72.3923 25.4959C72.2781 25.4805 72.178 25.5164 72.092 25.603ZM73.0199 26.4425C72.9568 26.5061 72.8874 26.5527 72.8111 26.5825C72.7349 26.6123 72.654 26.6213 72.5689 26.6097L72.5583 26.6203C72.6237 26.6687 72.6825 26.7176 72.7349 26.7672L73.1459 27.1575L72.999 27.3053L71.5515 25.9313L71.671 25.811L71.8279 25.9203L71.8351 25.9132C71.8182 25.8233 71.8226 25.7415 71.8484 25.668C71.8744 25.5944 71.9197 25.5249 71.9846 25.4595C72.1133 25.33 72.2579 25.2732 72.4184 25.2886C72.5787 25.3042 72.7408 25.3896 72.9042 25.5448C73.0683 25.7005 73.1602 25.8572 73.1799 26.0152C73.1997 26.173 73.1463 26.3155 73.0199 26.4425Z" fill="#939598"/>
<path d="M73.2031 24.4848C73.104 24.5847 73.0604 24.6835 73.0725 24.7818C73.0849 24.88 73.1521 24.9882 73.2743 25.1064L73.308 25.1384C73.4484 25.2718 73.5716 25.3442 73.6773 25.3558C73.7833 25.3675 73.8865 25.323 73.9868 25.2218C74.0705 25.1376 74.1011 25.0382 74.0789 24.9242C74.0566 24.81 73.984 24.6946 73.8612 24.5781C73.7366 24.4599 73.6174 24.3929 73.5033 24.3778C73.3892 24.3623 73.2891 24.3982 73.2031 24.4848ZM74.131 25.3243C74.0679 25.3878 73.9985 25.4346 73.9222 25.4644C73.846 25.494 73.7651 25.5031 73.68 25.4915L73.6694 25.5022C73.7348 25.5504 73.7936 25.5994 73.846 25.6489L74.257 26.0392L74.1101 26.187L72.6626 24.8131L72.7821 24.6928L72.939 24.8021L72.9462 24.7951C72.9293 24.7051 72.9337 24.6233 72.9595 24.5497C72.9855 24.4763 73.0308 24.4067 73.0957 24.3414C73.2244 24.2118 73.369 24.155 73.5294 24.1704C73.6897 24.186 73.8519 24.2714 74.0153 24.4266C74.1794 24.5823 74.2713 24.739 74.291 24.897C74.3108 25.0547 74.2574 25.1973 74.131 25.3243Z" fill="#939598"/>
</svg>
