<svg width="25" height="25" viewBox="0 0 25 25" fill="none" xmlns="http://www.w3.org/2000/svg">
<path d="M14.4792 24.2065H13.9792C13.9792 24.3535 14.0439 24.4932 14.1562 24.5882C14.2685 24.6832 14.4169 24.7239 14.5619 24.6996L14.4792 24.2065ZM10.5208 24.2065L10.4381 24.6996C10.5831 24.7239 10.7315 24.6832 10.8438 24.5882C10.9561 24.4932 11.0208 24.3535 11.0208 24.2065H10.5208ZM10.5208 15.7943H11.0208C11.0208 15.5181 10.797 15.2943 10.5208 15.2943V15.7943ZM7.55208 15.7943H7.05208C7.05208 16.0704 7.27594 16.2943 7.55208 16.2943V15.7943ZM7.55208 12.4957V11.9957C7.27594 11.9957 7.05208 12.2195 7.05208 12.4957H7.55208ZM10.5208 12.4957V12.9957C10.797 12.9957 11.0208 12.7718 11.0208 12.4957H10.5208ZM17.7778 5.50261H18.2778C18.2778 5.25582 18.0977 5.04595 17.8538 5.00842L17.7778 5.50261ZM17.7778 8.53733V9.03733C18.0539 9.03733 18.2778 8.81347 18.2778 8.53733H17.7778ZM14.4792 12.4957H13.9792C13.9792 12.7718 14.203 12.9957 14.4792 12.9957V12.4957ZM17.6458 12.4957L18.1396 12.5747C18.1627 12.4301 18.1213 12.2826 18.0263 12.1712C17.9313 12.0598 17.7922 11.9957 17.6458 11.9957V12.4957ZM17.1181 15.7943V16.2943C17.3637 16.2943 17.573 16.1158 17.6118 15.8733L17.1181 15.7943ZM14.4792 15.7943V15.2943C14.203 15.2943 13.9792 15.5181 13.9792 15.7943H14.4792ZM23.875 12.4957C23.875 18.1315 19.7759 22.8109 14.3964 23.7134L14.5619 24.6996C20.4151 23.7176 24.875 18.628 24.875 12.4957H23.875ZM12.5 1.12067C18.7822 1.12067 23.875 6.21343 23.875 12.4957H24.875C24.875 5.66114 19.3345 0.120667 12.5 0.120667V1.12067ZM1.125 12.4957C1.125 6.21343 6.21776 1.12067 12.5 1.12067V0.120667C5.66548 0.120667 0.125 5.66114 0.125 12.4957H1.125ZM10.6036 23.7134C5.22411 22.8109 1.125 18.1315 1.125 12.4957H0.125C0.125 18.628 4.58494 23.7176 10.4381 24.6996L10.6036 23.7134ZM10.0208 15.7943V24.2065H11.0208V15.7943H10.0208ZM7.55208 16.2943H10.5208V15.2943H7.55208V16.2943ZM7.05208 12.4957V15.7943H8.05208V12.4957H7.05208ZM10.5208 11.9957H7.55208V12.9957H10.5208V11.9957ZM10.0208 9.85677V12.4957H11.0208V9.85677H10.0208ZM15.1389 4.73872C13.6857 4.73872 12.3974 5.1831 11.4693 6.0737C10.5379 6.96752 10.0208 8.26138 10.0208 9.85677H11.0208C11.0208 8.48342 11.4604 7.46825 12.1617 6.79523C12.8664 6.11899 13.8872 5.73872 15.1389 5.73872V4.73872ZM17.8538 5.00842C16.9988 4.87688 16.0398 4.73872 15.1389 4.73872V5.73872C15.9533 5.73872 16.8415 5.86445 17.7018 5.99679L17.8538 5.00842ZM18.2778 8.53733V5.50261H17.2778V8.53733H18.2778ZM16.2604 9.03733H17.7778V8.03733H16.2604V9.03733ZM14.9792 10.1866C14.9792 9.76776 15.0574 9.5074 15.1992 9.34781C15.3311 9.19949 15.61 9.03733 16.2604 9.03733V8.03733C15.4595 8.03733 14.8478 8.23801 14.4518 8.68345C14.0659 9.1176 13.9792 9.6819 13.9792 10.1866H14.9792ZM14.9792 12.4957V10.1866H13.9792V12.4957H14.9792ZM17.6458 11.9957H14.4792V12.9957H17.6458V11.9957ZM17.6118 15.8733L18.1396 12.5747L17.1521 12.4167L16.6243 15.7153L17.6118 15.8733ZM14.4792 16.2943H17.1181V15.2943H14.4792V16.2943ZM14.9792 24.2065V15.7943H13.9792V24.2065H14.9792Z" fill="black"/>
</svg>
