<svg width="25" height="25" viewBox="0 0 25 25" fill="none" xmlns="http://www.w3.org/2000/svg">
<g clip-path="url(#clip0_2_3393)">
<mask id="path-1-outside-1_2_3393" maskUnits="userSpaceOnUse" x="-0.375" y="-0.375" width="26" height="26" fill="black">
<rect fill="white" x="-0.375" y="-0.375" width="26" height="26"/>
<path fill-rule="evenodd" clip-rule="evenodd" d="M0.625 7.5C0.625 3.70304 3.70304 0.625 7.5 0.625H17.5C21.297 0.625 24.375 3.70304 24.375 7.5V17.5C24.375 21.297 21.297 24.375 17.5 24.375H7.5C3.70304 24.375 0.625 21.297 0.625 17.5V7.5ZM19.375 12.5C19.375 16.297 16.297 19.375 12.5 19.375C8.70304 19.375 5.625 16.297 5.625 12.5C5.625 8.70304 8.70304 5.625 12.5 5.625C16.297 5.625 19.375 8.70304 19.375 12.5ZM19.0625 6.875C19.9254 6.875 20.625 6.17545 20.625 5.3125C20.625 4.44956 19.9254 3.75 19.0625 3.75C18.1996 3.75 17.5 4.44956 17.5 5.3125C17.5 6.17545 18.1996 6.875 19.0625 6.875Z"/>
</mask>
<path d="M7.5 -0.375C3.15076 -0.375 -0.375 3.15076 -0.375 7.5H1.625C1.625 4.25533 4.25533 1.625 7.5 1.625V-0.375ZM17.5 -0.375H7.5V1.625H17.5V-0.375ZM25.375 7.5C25.375 3.15076 21.8492 -0.375 17.5 -0.375V1.625C20.7447 1.625 23.375 4.25533 23.375 7.5H25.375ZM25.375 17.5V7.5H23.375V17.5H25.375ZM17.5 25.375C21.8492 25.375 25.375 21.8492 25.375 17.5H23.375C23.375 20.7447 20.7447 23.375 17.5 23.375V25.375ZM7.5 25.375H17.5V23.375H7.5V25.375ZM-0.375 17.5C-0.375 21.8492 3.15076 25.375 7.5 25.375V23.375C4.25533 23.375 1.625 20.7447 1.625 17.5H-0.375ZM-0.375 7.5V17.5H1.625V7.5H-0.375ZM12.5 20.375C16.8492 20.375 20.375 16.8492 20.375 12.5H18.375C18.375 15.7447 15.7447 18.375 12.5 18.375V20.375ZM4.625 12.5C4.625 16.8492 8.15076 20.375 12.5 20.375V18.375C9.25533 18.375 6.625 15.7447 6.625 12.5H4.625ZM12.5 4.625C8.15076 4.625 4.625 8.15076 4.625 12.5H6.625C6.625 9.25533 9.25533 6.625 12.5 6.625V4.625ZM20.375 12.5C20.375 8.15076 16.8492 4.625 12.5 4.625V6.625C15.7447 6.625 18.375 9.25533 18.375 12.5H20.375ZM19.625 5.3125C19.625 5.62316 19.3732 5.875 19.0625 5.875V7.875C20.4777 7.875 21.625 6.72773 21.625 5.3125H19.625ZM19.0625 4.75C19.3732 4.75 19.625 5.00184 19.625 5.3125H21.625C21.625 3.89727 20.4777 2.75 19.0625 2.75V4.75ZM18.5 5.3125C18.5 5.00184 18.7518 4.75 19.0625 4.75V2.75C17.6473 2.75 16.5 3.89727 16.5 5.3125H18.5ZM19.0625 5.875C18.7518 5.875 18.5 5.62316 18.5 5.3125H16.5C16.5 6.72773 17.6473 7.875 19.0625 7.875V5.875Z" fill="black" mask="url(#path-1-outside-1_2_3393)"/>
</g>
<defs>
<clipPath id="clip0_2_3393">
<rect width="25" height="25" fill="white"/>
</clipPath>
</defs>
</svg>
