<svg width="25" height="25" viewBox="0 0 25 25" fill="none" xmlns="http://www.w3.org/2000/svg">
<g clip-path="url(#clip0_2_3393)">
<mask id="path-1-inside-1_2_3393" fill="white">
<path fill-rule="evenodd" clip-rule="evenodd" d="M5 0C2.23858 0 0 2.23858 0 5V20C0 22.7614 2.23858 25 5 25H20C22.7614 25 25 22.7614 25 20V5C25 2.23858 22.7614 0 20 0H5ZM6.94919 8.15127C7.95487 8.15127 8.77018 7.33103 8.77018 6.31922C8.77018 5.30741 7.95487 4.48718 6.94919 4.48718C5.94352 4.48718 5.12821 5.30741 5.12821 6.31922C5.12821 7.33103 5.94352 8.15127 6.94919 8.15127ZM8.51004 19.2308V9.37263H5.38835V19.2308H8.51004ZM13.366 13.4729C13.366 12.5575 14.2098 11.8154 15.1436 11.8154C16.0775 11.8154 16.7478 12.5575 16.7478 13.4729V19.2308H19.8695V13.4729C19.8695 13.4527 19.8698 13.4284 19.8702 13.4004L19.8704 13.3848V13.3847C19.8806 12.596 19.9254 9.15453 16.2709 9.15453C14.5019 9.15453 13.5973 10.0851 13.366 10.5504V9.37263H10.2443V19.2308H13.366V13.4729Z"/>
</mask>
<path d="M8.51004 9.37263H9.51004C9.51004 8.82034 9.06232 8.37263 8.51004 8.37263V9.37263ZM8.51004 19.2308V20.2308C9.06232 20.2308 9.51004 19.7831 9.51004 19.2308H8.51004ZM5.38835 9.37263V8.37263C4.83606 8.37263 4.38835 8.82034 4.38835 9.37263H5.38835ZM5.38835 19.2308H4.38835C4.38835 19.7831 4.83606 20.2308 5.38835 20.2308V19.2308ZM16.7478 19.2308H15.7478C15.7478 19.7831 16.1956 20.2308 16.7478 20.2308V19.2308ZM19.8695 19.2308V20.2308C20.4218 20.2308 20.8695 19.7831 20.8695 19.2308H19.8695ZM19.8702 13.4004L20.8701 13.4129L20.8701 13.4127L19.8702 13.4004ZM19.8704 13.3848L20.8704 13.3971V13.3848H19.8704ZM19.8704 13.3847L18.8704 13.3717V13.3847H19.8704ZM16.2709 9.15453L16.2709 8.15453H16.2709V9.15453ZM13.366 10.5504H12.366C12.366 11.0146 12.6855 11.4178 13.1374 11.5239C13.5893 11.63 14.0549 11.4112 14.2615 10.9955L13.366 10.5504ZM13.366 9.37263H14.366C14.366 8.82034 13.9183 8.37263 13.366 8.37263V9.37263ZM10.2443 9.37263V8.37263C9.69203 8.37263 9.24431 8.82034 9.24431 9.37263H10.2443ZM10.2443 19.2308H9.24431C9.24431 19.7831 9.69203 20.2308 10.2443 20.2308V19.2308ZM13.366 19.2308V20.2308C13.9183 20.2308 14.366 19.7831 14.366 19.2308H13.366ZM1 5C1 2.79086 2.79086 1 5 1V-1C1.68629 -1 -1 1.68629 -1 5H1ZM1 20V5H-1V20H1ZM5 24C2.79086 24 1 22.2091 1 20H-1C-1 23.3137 1.68629 26 5 26V24ZM20 24H5V26H20V24ZM24 20C24 22.2091 22.2091 24 20 24V26C23.3137 26 26 23.3137 26 20H24ZM24 5V20H26V5H24ZM20 1C22.2091 1 24 2.79086 24 5H26C26 1.68629 23.3137 -1 20 -1V1ZM5 1H20V-1H5V1ZM7.77018 6.31922C7.77018 6.78445 7.3969 7.15127 6.94919 7.15127V9.15127C8.51284 9.15127 9.77018 7.87761 9.77018 6.31922H7.77018ZM6.94919 5.48718C7.3969 5.48718 7.77018 5.85399 7.77018 6.31922H9.77018C9.77018 4.76083 8.51284 3.48718 6.94919 3.48718V5.48718ZM6.12821 6.31922C6.12821 5.85399 6.50149 5.48718 6.94919 5.48718V3.48718C5.38554 3.48718 4.12821 4.76084 4.12821 6.31922H6.12821ZM6.94919 7.15127C6.50149 7.15127 6.12821 6.78445 6.12821 6.31922H4.12821C4.12821 7.87761 5.38554 9.15127 6.94919 9.15127V7.15127ZM7.51004 9.37263V19.2308H9.51004V9.37263H7.51004ZM5.38835 10.3726H8.51004V8.37263H5.38835V10.3726ZM6.38835 19.2308V9.37263H4.38835V19.2308H6.38835ZM8.51004 18.2308H5.38835V20.2308H8.51004V18.2308ZM15.1436 10.8154C13.7425 10.8154 12.366 11.9238 12.366 13.4729H14.366C14.366 13.1911 14.677 12.8154 15.1436 12.8154V10.8154ZM17.7478 13.4729C17.7478 12.0563 16.6796 10.8154 15.1436 10.8154V12.8154C15.4754 12.8154 15.7478 13.0586 15.7478 13.4729H17.7478ZM17.7478 19.2308V13.4729H15.7478V19.2308H17.7478ZM19.8695 18.2308H16.7478V20.2308H19.8695V18.2308ZM18.8695 13.4729V19.2308H20.8695V13.4729H18.8695ZM18.8703 13.3879C18.8699 13.4138 18.8695 13.4451 18.8695 13.4729H20.8695C20.8695 13.4603 20.8697 13.443 20.8701 13.4129L18.8703 13.3879ZM18.8705 13.3724L18.8703 13.3881L20.8701 13.4127L20.8703 13.3971L18.8705 13.3724ZM18.8704 13.3847V13.3848H20.8704V13.3847H18.8704ZM16.2709 10.1545C17.0224 10.1545 17.5064 10.3293 17.8272 10.5402C18.1504 10.7527 18.3768 11.0472 18.5376 11.3943C18.8768 12.1264 18.8756 12.9753 18.8705 13.3717L20.8703 13.3976C20.8754 13.0054 20.9017 11.7392 20.3522 10.5534C20.0687 9.94153 19.6216 9.32638 18.9258 8.86896C18.2275 8.40991 17.3466 8.15453 16.2709 8.15453L16.2709 10.1545ZM14.2615 10.9955C14.3193 10.8793 14.8713 10.1545 16.2709 10.1545V8.15453C14.1326 8.15453 12.8753 9.29093 12.4705 10.1053L14.2615 10.9955ZM12.366 9.37263V10.5504H14.366V9.37263H12.366ZM10.2443 10.3726H13.366V8.37263H10.2443V10.3726ZM11.2443 19.2308V9.37263H9.24431V19.2308H11.2443ZM13.366 18.2308H10.2443V20.2308H13.366V18.2308ZM12.366 13.4729V19.2308H14.366V13.4729H12.366Z" fill="black" mask="url(#path-1-inside-1_2_3393)"/>
</g>
<defs>
<clipPath id="clip0_2_3393">
<rect width="25" height="25" fill="white"/>
</clipPath>
</defs>
</svg>
